<svg width="171" height="49" viewBox="0 0 171 49" fill="none" xmlns="http://www.w3.org/2000/svg">
<path d="M20.1743 11.785L0 46.5141H40.3485L20.1743 11.785ZM20.1743 20.4213L32.9451 42.4077H7.42191L20.1743 20.4213Z" fill="#E3C68A"/>
<path d="M20.1743 0L0 34.7106H40.3485L20.1743 0ZM20.1743 8.61781L32.9451 30.6043H7.42191L20.1743 8.61781Z" fill="#E3C68A"/>
<path d="M47.0486 18.3958H52.0089V24.4172L57.1912 18.3958H63.7803L57.9316 24.4172L64.0394 34.3424H57.9501L54.563 27.787L52.0089 30.457V34.3424H47.0486V18.3958Z" fill="#E3C68A"/>
<path d="M65.2612 18.3958H74.5339C76.0701 18.3958 77.2732 18.7824 78.0876 19.5374C78.9204 20.2924 79.3276 21.2499 79.3276 22.3732C79.3276 23.3123 79.0315 24.1225 78.4392 24.8039C78.0505 25.2458 77.4768 25.6141 76.7179 25.8719C77.8655 26.1481 78.7169 26.6269 79.2536 27.2898C79.7903 27.9527 80.068 28.7997 80.068 29.8125C80.068 30.6411 79.8829 31.3777 79.4942 32.0406C79.1055 32.7035 78.5873 33.2191 77.9025 33.6058C77.4953 33.8452 76.866 34.0109 76.0146 34.1214C74.9041 34.2687 74.1638 34.3424 73.7936 34.3424H65.2427V18.3958H65.2612ZM70.2585 24.6566H72.4055C73.1828 24.6566 73.7196 24.5277 74.0157 24.2514C74.3118 23.9936 74.4784 23.6069 74.4784 23.1098C74.4784 22.6494 74.3303 22.2811 74.0157 22.0233C73.7196 21.7655 73.1828 21.6366 72.4425 21.6366H70.2585V24.6566ZM70.2585 30.9174H72.7756C73.627 30.9174 74.2378 30.77 74.571 30.457C74.9226 30.1624 75.0892 29.7573 75.0892 29.2417C75.0892 28.7629 74.9226 28.3946 74.571 28.1C74.2193 27.8054 73.627 27.6765 72.7571 27.6765H70.24V30.9174H70.2585Z" fill="#E3C68A"/>
<path d="M81.8445 18.3958H95.8554V21.5814L86.8603 30.9174H96.1886V34.3424H80.9746V31.0278L89.8772 21.8024H81.8445V18.3958Z" fill="#E3C68A"/>
<path d="M102.704 18.3958H111.976C113.513 18.3958 114.716 18.7824 115.53 19.5374C116.363 20.2924 116.77 21.2499 116.77 22.3732C116.77 23.3123 116.474 24.1225 115.882 24.8039C115.493 25.2458 114.919 25.6141 114.16 25.8719C115.308 26.1481 116.159 26.6269 116.696 27.2898C117.233 27.9527 117.51 28.7997 117.51 29.8125C117.51 30.6411 117.325 31.3777 116.937 32.0406C116.548 32.7035 116.03 33.2191 115.345 33.6058C114.938 33.8452 114.308 34.0109 113.457 34.1214C112.347 34.2687 111.606 34.3424 111.236 34.3424H102.685V18.3958H102.704ZM107.701 24.6566H109.848C110.625 24.6566 111.162 24.5277 111.458 24.2514C111.754 23.9936 111.921 23.6069 111.921 23.1098C111.921 22.6494 111.773 22.2811 111.458 22.0233C111.162 21.7655 110.625 21.6366 109.885 21.6366H107.701V24.6566ZM107.701 30.9174H110.218C111.069 30.9174 111.68 30.77 112.013 30.457C112.365 30.1624 112.532 29.7573 112.532 29.2417C112.532 28.7629 112.365 28.3946 112.013 28.1C111.662 27.8054 111.069 27.6765 110.2 27.6765H107.682V30.9174H107.701Z" fill="#E3C68A"/>
<path d="M129.152 31.7092H123.525L122.748 34.3424H117.695L123.711 18.3958H129.115L135.13 34.3424H129.948L129.152 31.7092ZM128.134 28.2657L126.357 22.5389L124.599 28.2657H128.134Z" fill="#E3C68A"/>
<path d="M136.333 18.3958H140.961L146.994 27.2161V18.3958H151.658V34.3424H146.994L140.979 25.5957V34.3424H136.315V18.3958H136.333Z" fill="#E3C68A"/>
<path d="M154.028 18.3958H158.988V24.4172L164.17 18.3958H170.759L164.911 24.4172L171.019 34.3424H164.911L161.524 27.787L158.97 30.457V34.3424H154.009V18.3958H154.028Z" fill="#E3C68A"/>
<path d="M46.8821 46.4772V37.8962H49.6769C50.7319 37.8962 51.4167 37.9331 51.7498 38.0251C52.2496 38.154 52.6567 38.4302 52.9899 38.8722C53.323 39.2957 53.4896 39.8665 53.4896 40.5479C53.4896 41.0819 53.3971 41.5238 53.1935 41.8737C53.0084 42.2235 52.7493 42.5182 52.4531 42.7207C52.157 42.9233 51.8609 43.0522 51.5462 43.1258C51.139 43.1995 50.5283 43.2547 49.7324 43.2547H48.6034V46.4956H46.8821V46.4772ZM48.6219 39.351V41.7816H49.5658C50.2506 41.7816 50.7133 41.7448 50.9354 41.6527C51.1575 41.5606 51.3426 41.4317 51.4722 41.2292C51.6018 41.045 51.6758 40.8241 51.6758 40.5663C51.6758 40.2532 51.5832 39.9954 51.3982 39.7929C51.2131 39.5903 50.9725 39.4614 50.6948 39.4062C50.4912 39.3694 50.0655 39.351 49.4363 39.351H48.6219Z" fill="#E3C68A"/>
<path d="M58.0613 46.4773H56.4141V40.2717H57.9503V41.1556C58.2094 40.7321 58.45 40.4558 58.6536 40.3269C58.8572 40.198 59.0978 40.1244 59.3754 40.1244C59.7456 40.1244 60.1158 40.2349 60.4674 40.4374L59.9492 41.8737C59.6716 41.6896 59.4124 41.5975 59.1718 41.5975C58.9497 41.5975 58.7461 41.6528 58.5796 41.7817C58.413 41.9106 58.2834 42.1315 58.2094 42.463C58.1168 42.7944 58.0798 43.4942 58.0798 44.5438V46.4773H58.0613Z" fill="#E3C68A"/>
<path d="M66.3345 44.5069L67.9818 44.7831C67.7782 45.3907 67.4265 45.8327 66.9823 46.1457C66.5196 46.4588 65.9459 46.6245 65.261 46.6245C64.169 46.6245 63.3732 46.2746 62.8549 45.5749C62.4477 45.0041 62.2441 44.3043 62.2441 43.4388C62.2441 42.4077 62.5218 41.5974 63.0585 41.0266C63.5953 40.4373 64.2801 40.1611 65.113 40.1611C66.0384 40.1611 66.7787 40.4742 67.3155 41.0818C67.8522 41.6895 68.1114 42.6286 68.0928 43.8808H63.9469C63.9654 44.3596 64.095 44.7463 64.3541 45.0225C64.6132 45.2987 64.9279 45.4276 65.2981 45.4276C65.5572 45.4276 65.7793 45.3539 65.9459 45.225C66.1124 45.0409 66.242 44.8199 66.3345 44.5069ZM66.4271 42.8312C66.4086 42.3524 66.2975 42.0025 66.0569 41.7447C65.8163 41.5054 65.5387 41.3765 65.2055 41.3765C64.8538 41.3765 64.5392 41.5054 64.3171 41.7632C64.0765 42.021 63.9654 42.3708 63.9654 42.8312H66.4271Z" fill="#E3C68A"/>
<path d="M70.8691 40.2717H72.3868V41.1188C72.9236 40.4558 73.5714 40.1244 74.3302 40.1244C74.7374 40.1244 75.0706 40.198 75.3667 40.3638C75.6628 40.5295 75.9035 40.7689 76.0885 41.1003C76.3662 40.7689 76.6623 40.5295 76.9769 40.3638C77.2916 40.198 77.6247 40.1244 77.9949 40.1244C78.4576 40.1244 78.8463 40.2165 79.161 40.4006C79.4756 40.5847 79.7162 40.861 79.8643 41.2108C79.9753 41.4686 80.0308 41.9106 80.0308 42.4998V46.4773H78.3836V42.9233C78.3836 42.3157 78.3281 41.9106 78.217 41.7264C78.0689 41.487 77.8283 41.3766 77.5137 41.3766C77.2916 41.3766 77.0695 41.4502 76.8659 41.5791C76.6623 41.7264 76.5142 41.929 76.4217 42.2052C76.3291 42.4814 76.2921 42.9049 76.2921 43.4942V46.4773H74.6449V43.0706C74.6449 42.463 74.6079 42.0763 74.5523 41.8921C74.4968 41.708 74.4043 41.5791 74.2747 41.5054C74.1451 41.4134 73.9786 41.3766 73.775 41.3766C73.5159 41.3766 73.2938 41.4502 73.0902 41.5791C72.8866 41.708 72.7385 41.9106 72.646 42.1684C72.5534 42.4262 72.5164 42.8497 72.5164 43.4573V46.4773H70.8691V40.2717Z" fill="#E3C68A"/>
<path d="M83.2515 39.4246V37.8962H84.8987V39.4246H83.2515ZM83.2515 46.4772V40.2717H84.8987V46.4772H83.2515Z" fill="#E3C68A"/>
<path d="M92.2832 46.4772V45.538C92.0611 45.8695 91.7649 46.1273 91.3948 46.3299C91.0246 46.514 90.6359 46.6245 90.2287 46.6245C89.803 46.6245 89.4329 46.5324 89.0997 46.3483C88.7665 46.1641 88.5259 45.9063 88.3779 45.5749C88.2298 45.2434 88.1558 44.7831 88.1558 44.1938V40.2716H89.803V43.1258C89.803 43.9913 89.84 44.5437 89.8956 44.7278C89.9511 44.9304 90.0621 45.0777 90.2287 45.1882C90.3953 45.2987 90.5989 45.3539 90.8395 45.3539C91.1171 45.3539 91.3763 45.2802 91.5984 45.1145C91.8205 44.9672 91.9685 44.7646 92.0611 44.5437C92.1351 44.3227 92.1906 43.7519 92.1906 42.868V40.2532H93.8379V46.4588H92.2832V46.4772Z" fill="#E3C68A"/>
<path d="M96.9663 40.2717H98.484V41.1188C99.0207 40.4558 99.6685 40.1244 100.427 40.1244C100.835 40.1244 101.168 40.198 101.464 40.3638C101.76 40.5295 102.001 40.7689 102.186 41.1003C102.463 40.7689 102.759 40.5295 103.074 40.3638C103.389 40.198 103.722 40.1244 104.092 40.1244C104.555 40.1244 104.943 40.2165 105.258 40.4006C105.573 40.5847 105.813 40.861 105.961 41.2108C106.072 41.4686 106.128 41.9106 106.128 42.4998V46.4773H104.481V42.9233C104.481 42.3157 104.425 41.9106 104.314 41.7264C104.166 41.487 103.925 41.3766 103.611 41.3766C103.389 41.3766 103.167 41.4502 102.963 41.5791C102.759 41.7264 102.611 41.929 102.519 42.2052C102.426 42.4814 102.389 42.9049 102.389 43.4942V46.4773H100.742V43.0706C100.742 42.463 100.705 42.0763 100.649 41.8921C100.594 41.708 100.501 41.5791 100.372 41.5054C100.242 41.4134 100.076 41.3766 99.8721 41.3766C99.613 41.3766 99.3909 41.4502 99.1873 41.5791C98.9837 41.708 98.8357 41.9106 98.7431 42.1684C98.6506 42.4262 98.6136 42.8497 98.6136 43.4573V46.4773H96.9663V40.2717Z" fill="#E3C68A"/>
<path d="M114.29 37.8962H117.733C118.417 37.8962 118.917 37.9331 119.25 37.9883C119.583 38.0436 119.88 38.154 120.157 38.3382C120.416 38.5223 120.638 38.7617 120.823 39.0563C121.009 39.351 121.083 39.6824 121.083 40.0507C121.083 40.4558 120.972 40.8241 120.749 41.1555C120.527 41.487 120.231 41.7448 119.861 41.9105C120.379 42.0578 120.786 42.3156 121.064 42.6839C121.342 43.0522 121.49 43.4757 121.49 43.9729C121.49 44.3596 121.397 44.7463 121.212 45.1146C121.027 45.4829 120.786 45.7775 120.472 45.9985C120.157 46.2194 119.768 46.3483 119.306 46.4036C119.01 46.4404 118.325 46.4588 117.214 46.4588H114.271V37.8962H114.29ZM116.03 39.3325V41.3213H117.177C117.862 41.3213 118.269 41.3029 118.436 41.2844C118.732 41.2476 118.973 41.1555 119.139 40.9714C119.306 40.8057 119.398 40.5847 119.398 40.3085C119.398 40.0507 119.324 39.8297 119.176 39.664C119.028 39.4983 118.806 39.4062 118.528 39.3694C118.362 39.351 117.862 39.3325 117.048 39.3325H116.03ZM116.03 42.7392V45.0409H117.64C118.269 45.0409 118.658 45.0225 118.825 44.9857C119.084 44.9304 119.287 44.82 119.454 44.6358C119.62 44.4517 119.694 44.2123 119.694 43.8992C119.694 43.6414 119.639 43.4205 119.509 43.2363C119.38 43.0522 119.195 42.9233 118.973 42.8496C118.732 42.776 118.214 42.7207 117.436 42.7207H116.03V42.7392Z" fill="#E3C68A"/>
<path d="M125.765 42.1684L124.266 41.8921C124.433 41.2845 124.729 40.8425 125.136 40.5663C125.543 40.2717 126.154 40.1244 126.968 40.1244C127.709 40.1244 128.245 40.2165 128.616 40.3822C128.967 40.5479 129.226 40.7689 129.374 41.0451C129.523 41.3213 129.597 41.8001 129.597 42.5182L129.578 44.4333C129.578 44.9857 129.597 45.3908 129.652 45.6486C129.708 45.9064 129.8 46.1826 129.948 46.4773H128.32C128.282 46.3668 128.227 46.2011 128.153 45.9985C128.134 45.9064 128.097 45.8328 128.097 45.8144C127.82 46.0906 127.505 46.2931 127.19 46.422C126.876 46.5509 126.524 46.6246 126.154 46.6246C125.506 46.6246 125.006 46.4589 124.636 46.109C124.266 45.7591 124.081 45.3172 124.081 44.8016C124.081 44.4517 124.174 44.1387 124.34 43.8625C124.507 43.5862 124.747 43.3837 125.043 43.2364C125.34 43.0891 125.784 42.9602 126.358 42.8497C127.135 42.7024 127.672 42.5735 127.968 42.4446V42.2788C127.968 41.9658 127.894 41.7448 127.727 41.5975C127.579 41.4686 127.283 41.395 126.839 41.395C126.543 41.395 126.321 41.4502 126.154 41.5607C126.006 41.6712 125.876 41.8737 125.765 42.1684ZM127.986 43.4942C127.783 43.5678 127.431 43.6415 126.987 43.752C126.524 43.844 126.228 43.9361 126.08 44.0466C125.858 44.1939 125.765 44.3965 125.765 44.6174C125.765 44.8384 125.858 45.041 126.024 45.2067C126.191 45.3724 126.413 45.4645 126.691 45.4645C126.987 45.4645 127.265 45.3724 127.542 45.1699C127.746 45.0226 127.875 44.8384 127.931 44.6174C127.968 44.4701 127.986 44.2123 127.986 43.8072V43.4942Z" fill="#E3C68A"/>
<path d="M138.48 46.4772H136.833V43.3099C136.833 42.647 136.796 42.2051 136.722 42.0025C136.648 41.8 136.537 41.6527 136.37 41.5422C136.204 41.4317 136.019 41.3765 135.797 41.3765C135.519 41.3765 135.26 41.4501 135.019 41.6158C134.797 41.7632 134.631 41.9841 134.557 42.2419C134.464 42.4997 134.427 42.9785 134.427 43.6782V46.4956H132.78V40.29H134.316V41.2107C134.853 40.511 135.538 40.1611 136.37 40.1611C136.741 40.1611 137.074 40.2348 137.37 40.3637C137.666 40.4926 137.907 40.6583 138.055 40.8609C138.203 41.0634 138.314 41.3028 138.369 41.5422C138.425 41.8 138.462 42.1683 138.462 42.647V46.4772H138.48Z" fill="#E3C68A"/>
<path d="M141.664 46.4772V37.8962H143.311V42.4445L145.255 40.2532H147.291L145.144 42.5366L147.439 46.4772H145.662L144.089 43.6783L143.311 44.4885V46.4772H141.664Z" fill="#E3C68A"/>
<path d="M149.975 39.4246V37.8962H151.622V39.4246H149.975ZM149.975 46.4772V40.2717H151.622V46.4772H149.975Z" fill="#E3C68A"/>
<path d="M160.561 46.4772H158.914V43.3099C158.914 42.647 158.877 42.2051 158.803 42.0025C158.729 41.8 158.618 41.6527 158.451 41.5422C158.285 41.4317 158.1 41.3765 157.878 41.3765C157.6 41.3765 157.341 41.4501 157.1 41.6158C156.878 41.7632 156.712 41.9841 156.638 42.2419C156.545 42.4997 156.508 42.9785 156.508 43.6782V46.4956H154.861V40.29H156.397V41.2107C156.934 40.511 157.619 40.1611 158.451 40.1611C158.822 40.1611 159.155 40.2348 159.451 40.3637C159.747 40.4926 159.988 40.6583 160.136 40.8609C160.284 41.0634 160.395 41.3028 160.45 41.5422C160.506 41.8 160.543 42.1683 160.543 42.647V46.4772H160.561Z" fill="#E3C68A"/>
<path d="M163.652 46.8824L165.54 47.1033C165.577 47.3243 165.651 47.4716 165.762 47.5453C165.91 47.6558 166.169 47.7294 166.503 47.7294C166.928 47.7294 167.261 47.6742 167.465 47.5453C167.613 47.4532 167.724 47.3243 167.798 47.1217C167.854 46.9929 167.872 46.7351 167.872 46.3668V45.4645C167.372 46.1274 166.762 46.4773 166.003 46.4773C165.17 46.4773 164.504 46.1274 164.004 45.4277C163.615 44.8752 163.43 44.1755 163.43 43.3469C163.43 42.2973 163.689 41.5054 164.189 40.953C164.689 40.4006 165.318 40.1244 166.058 40.1244C166.836 40.1244 167.465 40.4558 167.965 41.1372V40.2717H169.519V45.8512C169.519 46.5877 169.464 47.1402 169.334 47.49C169.205 47.8583 169.038 48.1345 168.816 48.3371C168.594 48.5396 168.298 48.7054 167.946 48.8158C167.576 48.9263 167.113 49 166.558 49C165.503 49 164.744 48.8159 164.3 48.466C163.856 48.0977 163.634 47.6558 163.634 47.1033C163.652 47.0297 163.652 46.956 163.652 46.8824ZM165.133 43.2364C165.133 43.8993 165.263 44.378 165.522 44.6911C165.781 45.0041 166.095 45.1514 166.466 45.1514C166.873 45.1514 167.206 44.9857 167.484 44.6727C167.761 44.3596 167.909 43.8993 167.909 43.2732C167.909 42.6287 167.78 42.1499 167.502 41.8369C167.243 41.5239 166.891 41.3765 166.484 41.3765C166.095 41.3765 165.762 41.5239 165.503 41.8369C165.263 42.1499 165.133 42.6103 165.133 43.2364Z" fill="#E3C68A"/>
</svg>
